<?xml version="1.0" standalone="no"?><!DOCTYPE svg PUBLIC "-//W3C//DTD SVG 1.1//EN" "http://www.w3.org/Graphics/SVG/1.1/DTD/svg11.dtd"><svg t="1648718735793" class="icon" viewBox="0 0 1024 1024" version="1.1" xmlns="http://www.w3.org/2000/svg" p-id="16759" xmlns:xlink="http://www.w3.org/1999/xlink" width="128" height="128"><defs><style type="text/css">@font-face { font-family: feedback-iconfont; src: url("//at.alicdn.com/t/font_1031158_u69w8yhxdu.woff2?t=1630033759944") format("woff2"), url("//at.alicdn.com/t/font_1031158_u69w8yhxdu.woff?t=1630033759944") format("woff"), url("//at.alicdn.com/t/font_1031158_u69w8yhxdu.ttf?t=1630033759944") format("truetype"); }
</style></defs><path d="M530.88 79.488a42.666667 42.666667 0 0 1 19.370667 19.370667l118.485333 240.064 264.96 38.506666a42.666667 42.666667 0 0 1 23.637333 72.768l-191.722666 186.88L810.88 900.906667a42.666667 42.666667 0 0 1-61.909333 44.992L512 821.333333l-236.970667 124.586667A42.666667 42.666667 0 0 1 213.12 900.906667l45.269333-263.850667-191.722666-186.88a42.666667 42.666667 0 0 1 23.658666-72.768l264.938667-38.506667 118.485333-240.064a42.666667 42.666667 0 0 1 57.130667-19.370666z m95.36 317.930667L512 165.909333l-114.24 231.509334L142.293333 434.56l184.853334 180.181333-43.648 254.421334L512 749.034667l228.48 120.106666-43.626667-254.421333 184.832-180.181333-255.445333-37.12z" fill="#333333" p-id="16760"></path></svg>